<svg xmlns="http://www.w3.org/2000/svg" width="57.43" height="30" viewBox="0 0 57.43 30"><defs><style>.a{fill:#9a9a9a;fill-rule:evenodd;}</style></defs><path class="a" d="M9.292,6.047h45.7c2.543,0,3.608,1.1,3.608,3.559V27.964c0,2.435-1.195,3.559-3.608,3.559H9.292c-3.14,0-3.608-1.311-3.608-3.559V9.606c0-2.274.831-3.559,3.608-3.559M29.2,11.262l.138-.384c.046-.1.139-.1.276-.1h.692c.091,0,.23.193.23.193v.289H29.2Zm3.742,0,.131-1.636a1.454,1.454,0,0,0-1.152-1.2,17.049,17.049,0,0,0-3.5,0c-.552.048-1.106.1-1.291.675l-.645,2.165h-1.45l-.4,1.806h2.588l-.207,1.03c-2.857,0-4.149,1.541-3.965,3.082.231,1.85,2.443,2.555,5.3,2.247l.415-2.291H26.512c-.736,0-.46-.749-.046-.88l2.489-.044.658-3.144h.542l-1.228,6.258,2.4-.043,1.092-6.215h.795l.395-1.806h-.661Zm7.085,0,.139-.384c.046-.1.139-.1.276-.1h.691c.092,0,.231.193.231.193l-.035.289h-1.3Zm11.434,0,.139-.384c.046-.1.138-.1.276-.1h.691c.092,0,.23.193.23.193l-.035.289h-1.3Zm-14,3.965c-.693.3-1.157.076-.979-.475l.306-1.684h1.1Zm-3.288-2.159c-.271,1.478-.887,3.453-.455,4.194.369.662,1.152.706,1.982.53a3.989,3.989,0,0,0,1.37-.564l-.411,2.1,2.4-.043,1.318-6.215h.607l-1.229,6.258,2.305-.043,1.319-6.215h.432l.395-1.806h-.434l.13-1.636a1.453,1.453,0,0,0-1.152-1.2c-1.428-.047-2.581-.047-3.5,0-.552,0-1.106.1-1.292.675l-.645,2.165h-3.2l-.395,1.806h.459Zm14.479,3.391H46.445l-.062.156,1.2,1.056L46.337,19.3l-3.548-2.291.691-1.365c1.383-.529,1.889-1.629,1.106-2.511l2.454-.068H44.41l.395-1.806h3.939L49.389,9.1c.185-.578.737-.675,1.291-.675,1.013-.047,2.213-.047,3.5,0a1.454,1.454,0,0,1,1.151,1.2L55.2,11.26h.433l-.4,1.806h-.43l-1.319,6.215-2.3.043,1.228-6.258H51.81l-1.319,6.215-2.4.043Zm-1.436-1.937h1.816l.285-1.454H47.8ZM23.954,21.041h8.3l-.6,2.827H28.832l-1.245,5.605H24.837l.986-5.605H23.358Zm11.739,2.7-.286,1.165h1.662a.9.9,0,0,0,.545-.174c.182,0,.415-.3.415-.52,0-.3-.285-.471-.986-.471Zm-2.544-2.7h4.775c1.324,0,3.166,1.314,3.166,2.752,0,2.457-1.272,3.77-3.451,3.77H34.732l-.441,1.91H31.437Zm-19.681,0h3.355l2.237,4.587.877-4.587H23l-1.918,8.431H17.675l-2.184-4.017-.666,4.017H11.737Zm38.642,5c-.415,1.811-2.543,3.273-5.06,3.273-2.882,0-5.216-1.884-5.216-4.164s2.335-4.191,5.216-4.191c2.543,0,4.722,1.513,5.138,3.472l-3.5.05a1.824,1.824,0,0,0-1.635-.918,1.712,1.712,0,0,0-1.816,1.563,1.711,1.711,0,0,0,1.816,1.563,1.979,1.979,0,0,0,1.4-.57ZM9.136,13.068l-.781,4.6,4.286,2.511,1.106-1.85-2.489-1.938.635-3.319h1.181a3.733,3.733,0,0,1-.931,3.258l1.292.968c1.181-.694,2-2.035,2.38-4.226h4.9l-.366,1.48-4.389.044-.369,1.938a2.464,2.464,0,0,0,1.568,1.5,1.3,1.3,0,0,0,1.245-.793,3.249,3.249,0,0,0,.231-.7h1.224l-.69,2.8h2.581L23.3,13.068H24l.4-1.806H9.1L8.7,13.068h.435Zm-1.453-9.3h48.58a4.554,4.554,0,0,1,4.412,4.576V29.223a4.62,4.62,0,0,1-4.412,4.549H7.683a4.551,4.551,0,0,1-4.437-4.549V8.348A4.525,4.525,0,0,1,7.683,3.772Z" transform="translate(-3.246 -3.772)"/></svg>