<svg xmlns="http://www.w3.org/2000/svg" width="113.629" height="24" viewBox="0 0 113.629 24"><defs><style>.a{fill:#9a9a9a;fill-rule:evenodd;}</style></defs><g transform="translate(-0.808 -0.482)"><g transform="translate(0.808 0.482)"><path class="a" d="M269.533,81.714a2.349,2.349,0,0,1-1.043,1.474,4.2,4.2,0,0,1-2.175.471h-2.968l1.042-3.888h2.968a2.93,2.93,0,0,1,1.923.47,1.376,1.376,0,0,1,.253,1.474m3.074-.084a3.286,3.286,0,0,0-.469-3.239,4.779,4.779,0,0,0-3.627-1.128h-6.625L257.9,92.144h3.219l1.608-6h2.111a2.29,2.29,0,0,1,1.118.23,1.01,1.01,0,0,1,.482.815l.574,4.953h3.449l-.56-4.619a1.825,1.825,0,0,0-1.415-1.818,6.085,6.085,0,0,0,2.656-1.526,5.568,5.568,0,0,0,1.467-2.55" transform="translate(-242.479 -72.658)"/><path class="a" d="M503.362,149.713a4.8,4.8,0,0,1-1.243,2.3,2.823,2.823,0,0,1-2.01.794,1.674,1.674,0,0,1-1.619-.784,3.114,3.114,0,0,1-.03-2.268,4.879,4.879,0,0,1,1.269-2.32,2.857,2.857,0,0,1,2.042-.836,1.608,1.608,0,0,1,1.582.8,3.3,3.3,0,0,1,.008,2.309Zm1.411-5.267-.4,1.5a2.363,2.363,0,0,0-1.011-1.3,3.375,3.375,0,0,0-1.857-.481,5.284,5.284,0,0,0-2.612.7,6.9,6.9,0,0,0-2.191,1.975,8.622,8.622,0,0,0-1.374,2.905,6.193,6.193,0,0,0-.174,2.874,3.113,3.113,0,0,0,1.139,1.913,3.611,3.611,0,0,0,2.256.669,5,5,0,0,0,2.109-.46,4.91,4.91,0,0,0,1.7-1.275l-.42,1.567h3.114l2.839-10.6Z" transform="translate(-465.412 -135.557)"/><path class="a" d="M708.105,148.706h-9.05l-.633,2.362h5.267l-6.963,6.019-.594,2.216h9.343l.633-2.362h-5.643l7.069-6.1Z" transform="translate(-654.434 -139.817)"/><path class="a" d="M899.52,149.692a4.869,4.869,0,0,1-1.244,2.341,2.807,2.807,0,0,1-1.993.773q-2.446,0-1.611-3.114a4.831,4.831,0,0,1,1.251-2.33,2.859,2.859,0,0,1,2.028-.784,1.608,1.608,0,0,1,1.577.784,3.333,3.333,0,0,1-.008,2.33m1.822-4.849a5.126,5.126,0,0,0-2.747-.669,7.375,7.375,0,0,0-3.137.669A6.81,6.81,0,0,0,893,146.766a7.8,7.8,0,0,0-1.464,2.926,5.583,5.583,0,0,0-.1,2.926,3.151,3.151,0,0,0,1.428,1.923,5.219,5.219,0,0,0,2.778.669,7.248,7.248,0,0,0,3.106-.669,6.844,6.844,0,0,0,2.448-1.923,7.8,7.8,0,0,0,1.463-2.926,5.593,5.593,0,0,0,.1-2.926,3.173,3.173,0,0,0-1.418-1.923" transform="translate(-837.88 -135.557)"/><path class="a" d="M1471.878,149.713a4.8,4.8,0,0,1-1.243,2.3,2.824,2.824,0,0,1-2.011.794,1.673,1.673,0,0,1-1.618-.784,3.114,3.114,0,0,1-.03-2.268,4.879,4.879,0,0,1,1.269-2.32,2.857,2.857,0,0,1,2.042-.836,1.608,1.608,0,0,1,1.582.8,3.3,3.3,0,0,1,.008,2.309Zm1.411-5.267-.4,1.5a2.363,2.363,0,0,0-1.011-1.3,3.374,3.374,0,0,0-1.857-.481,5.284,5.284,0,0,0-2.612.7,6.9,6.9,0,0,0-2.191,1.975,8.619,8.619,0,0,0-1.374,2.905,6.2,6.2,0,0,0-.174,2.874,3.109,3.109,0,0,0,1.139,1.913,3.611,3.611,0,0,0,2.256.669,4.993,4.993,0,0,0,2.109-.46,4.908,4.908,0,0,0,1.7-1.275l-.42,1.567h3.114l2.839-10.6Z" transform="translate(-1375.847 -135.557)"/><path class="a" d="M1097.579,147.616l.794-2.884a2.345,2.345,0,0,0-1.073-.209,4.275,4.275,0,0,0-2.055.533,4.51,4.51,0,0,0-1.456,1.27l.413-1.553h-3.113l-2.861,10.6h3.157l1.484-5.538a3.513,3.513,0,0,1,1.165-1.891,3.222,3.222,0,0,1,2.094-.679,3.084,3.084,0,0,1,1.451.355" transform="translate(-1023.015 -135.884)"/><path class="a" d="M1224.041,149.758a4.693,4.693,0,0,1-1.234,2.268,2.835,2.835,0,0,1-2.008.784,1.641,1.641,0,0,1-1.595-.794,3.2,3.2,0,0,1-.022-2.3,4.8,4.8,0,0,1,1.256-2.309,2.851,2.851,0,0,1,2.024-.8,1.578,1.578,0,0,1,1.563.836,3.346,3.346,0,0,1,.016,2.32m2.206-4.88a3.479,3.479,0,0,0-2.237-.7,4.958,4.958,0,0,0-2.267.543A4.707,4.707,0,0,0,1220,146.2l.01-.07.53-1.688h-3.082l-.785,2.93c-.009.034-.017.066-.026.1l-3.237,12.08h3.156l1.63-6.082a2.172,2.172,0,0,0,1,1.274,3.521,3.521,0,0,0,1.863.46,5.466,5.466,0,0,0,2.625-.669,6.513,6.513,0,0,0,2.163-1.912,8.471,8.471,0,0,0,1.355-2.874,6.411,6.411,0,0,0,.183-2.905,3.23,3.23,0,0,0-1.132-1.975" transform="translate(-1140.69 -135.56)"/><path class="a" d="M1676.813,148.709l0,0H1674.9c-.061,0-.115,0-.171,0h-.992l-.507.707c-.041.053-.081.107-.125.169l-.055.082-4.032,5.616-.836-6.577h-3.3l1.673,9.994-3.694,5.117h3.291l.9-1.268.077-.109,1.045-1.481.03-.042,4.674-6.626,3.938-5.577.005,0Z" transform="translate(-1563.186 -139.817)"/><path class="a" d="M107.823,6.792l-.945,3.477,5.407-3.5-3.536,13.192,3.591,0L117.563.482Z" transform="translate(-100.517 -0.482)"/><path class="a" d="M2.294,143,.808,148.548h7.36l3.011-11.283L2.294,143" transform="translate(-0.808 -129.063)"/></g></g></svg>