<svg xmlns="http://www.w3.org/2000/svg" width="160.8" height="24" viewBox="0 0 160.8 24"><defs><style>.a,.b{fill:#9a9a9a;}.b{fill-rule:evenodd;}</style></defs><path class="a" d="M34.73,12.5c0,3.046,1.159,5.2,4.607,5.2A5.5,5.5,0,0,0,43.2,16.174l.208.747c.089.287.208.489.535.489h.565a.575.575,0,0,0,.565-.546V6.46a.575.575,0,0,0-.565-.546h-.921a.575.575,0,0,0-.565.546v7.673a4.745,4.745,0,0,1-3.537,1.638c-1.664,0-2.675-1.063-2.675-3.247V6.46a.575.575,0,0,0-.565-.546H35.3a.575.575,0,0,0-.565.546Z"/><path class="b" d="M66,10.11c-3.061,0-4.755,1.638-4.755,3.822A3.545,3.545,0,0,0,64.9,17.7,5.234,5.234,0,0,0,68.587,16.2l.238.776c.089.259.178.431.505.431h.565a.575.575,0,0,0,.565-.546v-6.38c0-3.362-.743-4.857-3.774-4.857a11.5,11.5,0,0,0-4.131.747c-.267.115-.446.287-.327.632l.238.718a.393.393,0,0,0,.565.287A10.764,10.764,0,0,1,66.6,7.38c1.694,0,1.961.977,1.932,3.1A10.071,10.071,0,0,0,66,10.11Zm-.773,5.863a1.971,1.971,0,0,1-2.08-2.041c0-1.494,1.189-2.3,2.853-2.3a5.473,5.473,0,0,1,2.5.46v2.27A4.259,4.259,0,0,1,65.228,15.973Z"/><path class="a" d="M73.227,11.691A6.008,6.008,0,0,0,79.319,17.7a5.371,5.371,0,0,0,4.547-2.414.568.568,0,0,0-.208-.8l-.327-.23a.572.572,0,0,0-.892.057,3.972,3.972,0,0,1-7.073-2.644,3.961,3.961,0,0,1,3.953-4.081,3.719,3.719,0,0,1,2.734,1.207c.267.23.416.517.862.115l.565-.46a.55.55,0,0,0,.119-.8,5.194,5.194,0,0,0-4.25-2.012A6.157,6.157,0,0,0,73.227,11.691Z"/><path class="b" d="M91.48,10.11c-3.061,0-4.755,1.638-4.755,3.822A3.545,3.545,0,0,0,90.38,17.7,5.234,5.234,0,0,0,94.065,16.2l.238.776c.089.259.178.431.505.431h.565a.575.575,0,0,0,.565-.546v-6.38c0-3.362-.743-4.857-3.774-4.857a11.5,11.5,0,0,0-4.131.747c-.268.115-.446.287-.327.632l.238.718a.393.393,0,0,0,.565.287,10.765,10.765,0,0,1,3.566-.632c1.694,0,1.961.977,1.932,3.1A10.071,10.071,0,0,0,91.48,10.11Zm-.774,5.863a1.971,1.971,0,0,1-2.08-2.041c0-1.494,1.189-2.3,2.853-2.3a5.473,5.473,0,0,1,2.5.46v2.27A4.259,4.259,0,0,1,90.706,15.973Z"/><path class="b" d="M104.411,5.626c-3.566,0-5.706,2.644-5.706,6.006,0,3.3,2.378,6.064,5.409,6.064a5.39,5.39,0,0,0,3.656-1.523l.178.776a.531.531,0,0,0,.505.46h.624a.575.575,0,0,0,.565-.546V.546A.575.575,0,0,0,109.077,0h-.921a.576.576,0,0,0-.565.546V6.374A6.525,6.525,0,0,0,104.411,5.626Zm-.09,10.259c-2.169,0-3.536-1.983-3.536-4.224,0-2.3,1.307-4.11,3.893-4.11a6.552,6.552,0,0,1,2.883.69v5.748A4.017,4.017,0,0,1,104.321,15.886Z"/><path class="b" d="M118.233,5.627a5.75,5.75,0,0,0-5.825,6.035,5.718,5.718,0,0,0,5.825,6.035,7.554,7.554,0,0,0,4.369-1.322c.446-.316.327-.488.119-.747-.089-.115-.171-.223-.253-.33s-.163-.216-.252-.331c-.217-.288-.385-.194-.728,0l-.1.058a5.794,5.794,0,0,1-2.943.862,4.11,4.11,0,0,1-3.982-3.736h8.559a.539.539,0,0,0,.535-.489,6.757,6.757,0,0,0,.06-.776A5.161,5.161,0,0,0,118.233,5.627Zm3.327,4.914h-7.073a3.656,3.656,0,0,1,3.745-3.161A3.38,3.38,0,0,1,121.56,10.541Z"/><path class="a" d="M126.381,16.864a.575.575,0,0,0,.565.546h.921a.576.576,0,0,0,.565-.546V9.191a4.628,4.628,0,0,1,3.388-1.638c1.812,0,2.823,1.063,2.823,3.247v6.064a.575.575,0,0,0,.565.546h.951a.575.575,0,0,0,.564-.546V10.8a9.107,9.107,0,0,0-.148-1.638A5.385,5.385,0,0,1,140.2,7.552c1.723,0,2.674,1.092,2.674,3.247v6.064a.576.576,0,0,0,.565.546h.951a.576.576,0,0,0,.565-.546V10.8c0-2.989-1.159-5.173-4.607-5.173a7.364,7.364,0,0,0-4.428,1.868,4.222,4.222,0,0,0-3.8-1.868,5.5,5.5,0,0,0-3.864,1.523l-.267-.891a.431.431,0,0,0-.476-.345h-.564a.575.575,0,0,0-.565.546Z"/><path class="a" d="M153.319,17.381l-2.407,5.9c-.208.4.03.719.475.719h1.1a.634.634,0,0,0,.505-.345l7.727-17.08c.208-.374,0-.661-.446-.661h-1.129a.6.6,0,0,0-.5.316l-4.161,8.794L150.05,6.23a.568.568,0,0,0-.506-.316h-1.307c-.446,0-.624.259-.446.632Z"/><path class="a" d="M47.838,16.864a.575.575,0,0,0,.565.546h.921a.575.575,0,0,0,.565-.546V9.191a5.93,5.93,0,0,1,3.834-1.638c1.664,0,2.675,1.063,2.675,3.247v6.064a.575.575,0,0,0,.565.546h.951a.575.575,0,0,0,.565-.546V10.8c0-2.989-1.159-5.173-4.607-5.173A6.746,6.746,0,0,0,49.71,7.15l-.267-.891a.431.431,0,0,0-.476-.345H48.4a.575.575,0,0,0-.565.546Z"/><path class="a" d="M.152,2.231a14.536,14.536,0,0,0,14.5,11.957A14.546,14.546,0,0,0,29.113,2.436,5.588,5.588,0,0,0,29.31.88.85.85,0,0,0,28.44.008H.873A.85.85,0,0,0,0,.879H0L0,.912a5.283,5.283,0,0,0,.15,1.319Z"/><path class="a" d="M21.856,22.867a7.268,7.268,0,0,0-7.249-5.978,7.273,7.273,0,0,0-7.232,5.876,2.794,2.794,0,0,0-.1.778.425.425,0,0,0,.435.436H21.5a.425.425,0,0,0,.435-.436h0v-.016A2.643,2.643,0,0,0,21.856,22.867Z"/></svg>