<svg xmlns="http://www.w3.org/2000/svg" width="103.834" height="24" viewBox="0 0 103.834 24"><defs><style>.a{fill:#9a9a9a;}</style></defs><g transform="translate(-14404.138 -7712.132)"><path class="a" d="M379.528,36.355c3.237-2.761,6.3-2.654,8.029.264a5.741,5.741,0,0,1,3.728-2.187c2.936-.358,4.707.945,5,3.873.28,2.841.065,5.7.117,8.547.009.494-.159.865-.708.859-.637,0-.573-.5-.573-.93v-6.95c0-.286.013-.573-.007-.859-.164-2.348-1.172-3.436-3.124-3.375a4.111,4.111,0,0,0-4.069,3.883c-.03,2.386,0,4.772-.01,7.164,0,.45.106,1.03-.573,1.05-.708.024-.713-.537-.712-1.062q.007-3.849,0-7.7c0-1.266-.191-2.5-1.522-3.033a3.531,3.531,0,0,0-3.97.7,4.778,4.778,0,0,0-1.6,3.6c0,2.174,0,4.348,0,6.523,0,.464.073,1-.632.986-.663-.014-.655-.512-.654-1q.006-5.507.006-11.013c0-.477-.164-1.083.628-1.095s.639.59.653,1.072C379.533,35.859,379.528,36.037,379.528,36.355Z" transform="translate(14106.155 7685.1)"/><path class="a" d="M4.335,13.584a6.823,6.823,0,0,1-1.376-.145A3.877,3.877,0,0,1,.99,12.413a3.3,3.3,0,0,1-.944-1.859,3.73,3.73,0,0,1,.305-2.23A3.774,3.774,0,0,1,1.938,6.7a9.109,9.109,0,0,1,4.629-.954h.908c.6,0,.929-.033,1.1-.217.21-.226.178-.678.113-1.578C8.565,2.281,7.338,1.3,5.322,1.269h-.1A3.531,3.531,0,0,0,1.6,3.818a.668.668,0,0,1-.693.522A1.909,1.909,0,0,1,.7,4.326.471.471,0,0,1,.35,4.168a.652.652,0,0,1-.01-.508c.011-.052.023-.1.031-.149A3.587,3.587,0,0,1,2,1,5.872,5.872,0,0,1,5.223,0,6.369,6.369,0,0,1,7.8.58C9.278,1.235,10,2.523,10,4.518V6.774c0,1.291,0,2.627.008,3.94a8.15,8.15,0,0,0,.148,1.591c.01.046.02.1.03.136a.938.938,0,0,1,0,.691.655.655,0,0,1-.441.247,1.209,1.209,0,0,1-.252.03c-.5,0-.618-.419-.668-.871l-.034-.295h0l-.053-.453a6.586,6.586,0,0,1-4.4,1.8Zm1.909-6.56c-.246,0-.45.006-.643.019a9.054,9.054,0,0,0-1.835.281,4.219,4.219,0,0,0-1.641.859,2.322,2.322,0,0,0-.851,1.892,2.053,2.053,0,0,0,.277.913,2.268,2.268,0,0,0,.711.746,3.6,3.6,0,0,0,2.03.63,5.28,5.28,0,0,0,2.325-.616,4.243,4.243,0,0,0,1.6-1.241A2.588,2.588,0,0,0,8.693,8.59V8.124A2.051,2.051,0,0,0,8.6,7.2c-.1-.143-.274-.166-.668-.166H7.2l-.376-.007c-.19,0-.386,0-.578,0Z" transform="translate(14456.971 7719.441)"/><path class="a" d="M160.852,22.743c1.581-2.253,3.108-4.432,4.638-6.608a2.684,2.684,0,0,1,.53-.662.824.824,0,0,1,1.079.008c.4.366-.021.642-.206.906-1.533,2.186-3.043,4.39-4.637,6.53a1.288,1.288,0,0,0,.012,1.836c1.646,2.235,3.211,4.53,4.806,6.8.237.338.676.733.15,1.075-.455.3-.91.115-1.256-.391-1.406-2.058-2.846-4.091-4.275-6.133-.848-1.212-.849-1.212-1.729.042l-4.044,5.766c-.122.175-.242.352-.374.519a.748.748,0,0,1-1.125.141c-.4-.308-.073-.638.126-.921,1.657-2.36,3.292-4.736,4.995-7.063a1.087,1.087,0,0,0-.025-1.552c-1.581-2.15-3.1-4.345-4.626-6.539-.207-.3-.791-.668-.227-1.057.5-.343.983-.135,1.351.4,1.391,2.024,2.811,4.029,4.22,6.04C160.405,22.136,160.6,22.385,160.852,22.743Z" transform="translate(14282.235 7700.1)"/><path class="a" d="M5.877,13.581c-.132,0-.266,0-.4-.014a6.035,6.035,0,0,1-2.038-.508A5.558,5.558,0,0,1,1.791,11.93,5.7,5.7,0,0,1,.636,10.268,6.46,6.46,0,0,1,.083,8.174,10.682,10.682,0,0,1,.256,4.451,6.084,6.084,0,0,1,2.271,1.206,5.447,5.447,0,0,1,5.744,0c.088,0,.173,0,.268.006A5.692,5.692,0,0,1,7.967.435,5.464,5.464,0,0,1,9.59,1.479,5.7,5.7,0,0,1,10.77,3.041a6.33,6.33,0,0,1,.632,1.98c.06.4.09.81.121,1.241.015.21.031.428.052.654-.023.191-.041.388-.059.6a10.83,10.83,0,0,1-.191,1.432,6.458,6.458,0,0,1-.753,1.894A5.833,5.833,0,0,1,9.331,12.3a5.408,5.408,0,0,1-1.6.941,5.266,5.266,0,0,1-1.853.341ZM5.758,1.269a4.053,4.053,0,0,0-2.233.624A4.677,4.677,0,0,0,1.957,3.671a5.5,5.5,0,0,0-.54,1.55,8.62,8.62,0,0,0-.146,1.574c.01.151.016.294.022.432.013.286.026.548.057.809a5.035,5.035,0,0,0,1.226,2.8,4.438,4.438,0,0,0,2.562,1.4,4.074,4.074,0,0,0,2.9-.586,4.281,4.281,0,0,0,1.571-1.8,7.158,7.158,0,0,0,.714-3.043,7.123,7.123,0,0,0-.7-3.041A4.342,4.342,0,0,0,8.1,1.932a4.143,4.143,0,0,0-2.278-.668Z" transform="translate(14470.003 7719.47)"/><path class="a" d="M481.253,42.141V36.587c0-.446-.129-1.009.581-1.029.668-.019.668.477.668.968q-.006,5.607,0,11.215c0,.448,0,.9-.607.923-.7.022-.649-.5-.649-.97Q481.254,44.917,481.253,42.141Z" transform="translate(14025.185 7684.154)"/><path class="a" d="M230.674,42.117v5.661c0,.46-.021.894-.636.88s-.623-.456-.622-.91V36.427c0-.477.068-.884.658-.879.623,0,.6.463.6.91C230.67,38.344,230.674,40.23,230.674,42.117Z" transform="translate(14223.132 7684.161)"/><path class="a" d="M481.638,15.259c.006.668-.282.993-.881,1.018a.826.826,0,0,1-.973-.853.887.887,0,0,1,.943-1.024.827.827,0,0,1,.911.859Z" transform="translate(14026.334 7700.786)"/><path class="a" d="M229.97,15.343a.846.846,0,0,1-.883.929.821.821,0,0,1-.98-.836.871.871,0,0,1,.91-1.041.907.907,0,0,1,.953.949Z" transform="translate(14224.163 7700.79)"/><path class="a" d="M-545.06,422.471h22.351a1.371,1.371,0,0,1,.775.864v22.356a1.416,1.416,0,0,1-.829.78h-22.4a1.432,1.432,0,0,1-.764-.838v-22.3a1.217,1.217,0,0,1,.869-.859Zm3.581,7.2v9.6h2.4v-7.54c1.6.009,3.211-.015,4.815.007a1.694,1.694,0,0,1,1.2.5,1.694,1.694,0,0,1,.491,1.2c.028,1.944,0,3.889.011,5.833h2.4v-6.681a2.869,2.869,0,0,0-.837-2.07,2.869,2.869,0,0,0-2.068-.843C-535.871,429.657-538.675,429.678-541.479,429.671Zm13.029,0v9.6h2.4v-9.6Zm-8.572,3.771v5.829h2.4v-5.829Z" transform="translate(14950.067 7289.661)"/></g></svg>